<svg width="199" height="59" viewBox="0 0 199 59" fill="none" xmlns="http://www.w3.org/2000/svg">
<g clip-path="url(#clip0)">
<path d="M61.2915 17.4142V39.6695C61.2915 40.5772 61.0919 41.4512 60.7594 42.2245C60.2273 43.4347 59.3293 44.4433 58.1654 45.1156L48.8536 50.5282L39.1095 56.2096C38.3778 56.6131 37.613 56.882 36.8148 57.0165C35.5511 57.1846 34.2208 56.9492 33.0568 56.3441C32.9903 56.3105 32.9238 56.2769 32.8573 56.2433L28.2679 53.5538L13.8347 45.1156C12.6707 44.4433 11.7728 43.4011 11.2407 42.2245C10.8748 41.4176 10.7086 40.5772 10.7086 39.6695V17.4142C10.7086 15.1618 11.9058 13.0775 13.8347 11.9681L29.1991 2.99198L31.8596 1.44554L32.8573 0.874034C34.0878 0.168051 35.4513 -0.100895 36.8148 0.100814C37.613 0.201669 38.3778 0.470615 39.1095 0.874034L48.8536 6.55551L58.1654 12.0017C60.0942 13.0775 61.2915 15.1618 61.2915 17.4142Z" fill="#217C58"/>
<path d="M35.9834 54.5288C35.418 54.5288 34.8859 54.3944 34.3871 54.0918L14.8989 42.6952C13.9012 42.1237 13.3026 41.0479 13.3026 39.9049V17.1454C13.3026 16.0023 13.9012 14.9266 14.8989 14.3551L34.3871 2.99209C34.8859 2.72314 35.418 2.55505 35.9834 2.55505C36.5487 2.55505 37.0808 2.68953 37.5797 2.99209L57.0679 14.3551C58.0656 14.9266 58.6642 16.0023 58.6642 17.1454V39.9049C58.6642 41.0479 58.0656 42.1237 57.0679 42.6952L37.5797 54.0918C37.1141 54.3607 36.5487 54.5288 35.9834 54.5288Z" fill="#21B573"/>
<path d="M56.303 6.52185C56.303 17.3133 56.303 29.5167 56.303 40.3082C49.6185 38.0221 42.6679 38.0221 36.0166 40.3082C36.0166 39.3669 36.0166 38.3919 36.0166 37.4506C42.0693 35.5344 48.3547 35.5344 54.4074 37.4506C54.4074 27.1298 54.4074 16.8427 54.4074 6.52185H56.303Z" fill="#56548C"/>
<path d="M35.9834 37.4506C35.9834 38.3919 35.9834 39.3669 35.9834 40.3082C29.2988 38.0221 22.3483 38.0221 15.697 40.3082C15.697 29.5167 15.697 17.3133 15.697 6.52185H17.6259C17.6259 16.8427 17.6259 27.1298 17.6259 37.4506C23.6453 35.5344 29.964 35.5344 35.9834 37.4506Z" fill="#46467C"/>
<path d="M35.9834 37.4507C35.9834 26.592 35.9834 15.7333 35.9834 4.84099C42.036 2.92475 48.3215 2.92475 54.3741 4.84099C54.3741 5.37888 54.3741 5.95039 54.3741 6.5219C54.3741 16.8427 54.3741 27.1299 54.3741 37.4507C48.3215 35.5344 42.036 35.5344 35.9834 37.4507Z" fill="#E4E8EA"/>
<path d="M35.9833 4.87407C35.9833 15.7328 35.9833 26.5914 35.9833 37.4837C29.9307 35.5675 23.6452 35.5675 17.5926 37.4837C17.5926 27.163 17.5926 16.8758 17.5926 6.55498C17.5926 6.01709 17.5926 5.44558 17.5926 4.87407C23.6452 2.95783 29.9639 2.95783 35.9833 4.87407Z" fill="#F9FBFC"/>
<path d="M17.6259 34.5259C17.6259 35.5009 17.6259 36.4758 17.6259 37.4507C23.6785 35.5345 29.964 35.5345 36.0166 37.4507C36.0166 36.4758 36.0166 35.5009 36.0166 34.5259C29.964 32.6097 23.6453 32.6097 17.6259 34.5259Z" fill="#E4E8EA"/>
<path d="M54.3741 34.5259C54.3741 35.5009 54.3741 36.4758 54.3741 37.4507C48.3215 35.5345 42.036 35.5345 35.9834 37.4507C35.9834 36.4758 35.9834 35.5009 35.9834 34.5259C42.036 32.6097 48.3215 32.6097 54.3741 34.5259Z" fill="#CED5D8"/>
<path d="M33.3228 7.09336C28.9995 6.11843 24.6097 6.11843 20.2864 7.09336L20.1866 6.68994C24.5764 5.71501 28.9995 5.71501 33.3894 6.68994L33.3228 7.09336Z" fill="#56548C"/>
<path d="M33.3228 10.5224C28.9995 9.54743 24.6097 9.54743 20.2864 10.5224L20.1866 10.0853C24.5764 9.11039 28.9995 9.11039 33.3894 10.0853L33.3228 10.5224Z" fill="#56548C"/>
<path d="M33.3228 13.9178C28.9995 12.9429 24.6097 12.9429 20.2864 13.9178L20.1866 13.5144C24.5764 12.5395 28.9995 12.5395 33.3894 13.5144L33.3228 13.9178Z" fill="#56548C"/>
<path d="M33.3228 17.3469C28.9995 16.372 24.6097 16.372 20.2864 17.3469L20.1866 16.9435C24.5764 15.9685 28.9995 15.9685 33.3894 16.9435L33.3228 17.3469Z" fill="#56548C"/>
<path d="M33.3228 20.776C28.9995 19.8347 24.6097 19.8347 20.2864 20.776L20.1866 20.3726C24.5764 19.3976 28.9995 19.3976 33.3894 20.3726L33.3228 20.776Z" fill="#56548C"/>
<path d="M33.3228 24.2051C28.9995 23.2301 24.6097 23.2301 20.2864 24.2051L20.1866 23.8016C24.5764 22.8267 28.9995 22.8267 33.3894 23.8016L33.3228 24.2051Z" fill="#56548C"/>
<path d="M33.3228 27.6341C28.9995 26.6592 24.6097 26.6592 20.2864 27.6341L20.1866 27.2307C24.5764 26.2558 28.9995 26.2558 33.3894 27.2307L33.3228 27.6341Z" fill="#56548C"/>
<path d="M33.3228 31.0632C28.9995 30.0883 24.6097 30.0883 20.2864 31.0632L20.1866 30.6598C24.5764 29.6849 28.9995 29.6849 33.3894 30.6598L33.3228 31.0632Z" fill="#56548C"/>
<path d="M51.6803 7.09336C47.357 6.11843 42.9672 6.11843 38.6438 7.09336L38.5441 6.68994C42.9339 5.71501 47.357 5.71501 51.7468 6.68994L51.6803 7.09336Z" fill="#56548C"/>
<path d="M51.6804 10.5224C47.357 9.54743 42.9672 9.54743 38.6439 10.5224L38.5774 10.0853C42.9672 9.11039 47.3903 9.11039 51.7801 10.0853L51.6804 10.5224Z" fill="#56548C"/>
<path d="M51.6803 13.9178C47.357 12.9429 42.9672 12.9429 38.6438 13.9178L38.5441 13.5144C42.9339 12.5395 47.357 12.5395 51.7468 13.5144L51.6803 13.9178Z" fill="#56548C"/>
<path d="M51.6803 17.3469C47.357 16.372 42.9672 16.372 38.6438 17.3469L38.5441 16.9435C42.9339 15.9685 47.357 15.9685 51.7468 16.9435L51.6803 17.3469Z" fill="#56548C"/>
<path d="M51.6803 20.776C47.357 19.801 42.9672 19.801 38.6438 20.776L38.5441 20.3726C42.9339 19.3976 47.357 19.3976 51.7468 20.3726L51.6803 20.776Z" fill="#56548C"/>
<path d="M51.6803 24.2051C47.357 23.2301 42.9672 23.2301 38.6438 24.2051L38.5441 23.8016C42.9339 22.8267 47.357 22.8267 51.7468 23.8016L51.6803 24.2051Z" fill="#56548C"/>
<path d="M51.6804 27.6341C47.357 26.6592 42.9672 26.6592 38.6439 27.6341L38.5774 27.2307C42.9672 26.2558 47.3903 26.2558 51.7801 27.2307L51.6804 27.6341Z" fill="#56548C"/>
<path d="M51.6803 31.0632C47.357 30.0883 42.9672 30.0883 38.6438 31.0632L38.5441 30.6598C42.9339 29.6849 47.357 29.6849 51.7468 30.6598L51.6803 31.0632Z" fill="#56548C"/>
<path d="M51.6138 43.367C51.6138 42.4593 50.8822 41.7533 50.0175 41.7533H48.4545H44.4305H25.8734L22.049 43.098V44.3419L25.8734 45.6866H44.4305H48.4545H50.0175C50.9155 45.6866 51.6138 44.947 51.6138 44.073V43.367Z" fill="#EEE2D2"/>
<path d="M50.0175 41.7538C50.9154 41.7538 51.6138 42.4934 51.6138 43.3675V44.0399C51.6138 44.9476 50.8822 45.6536 50.0175 45.6536H48.4545V45.0821V44.1407V43.1994V42.2581V41.7202H50.0175V41.7538Z" fill="#F49A9A"/>
<path d="M44.4305 41.7533H48.4545V42.2912H44.4305V41.7533Z" fill="#FBD15B"/>
<path d="M48.4545 43.233V44.1407H44.4305V43.7037V43.233H48.4545Z" fill="#FBD15B"/>
<path d="M48.4545 45.082V45.6872H44.4305V45.082H48.4545Z" fill="#FBD15B"/>
<path d="M48.4545 44.1407H44.4305V45.0821H48.4545V44.1407Z" fill="#E2B137"/>
<path d="M48.4545 42.2917V43.2331H44.4305V42.2917H48.4545Z" fill="#E2B137"/>
<path d="M44.4305 41.7533V42.2912V43.2325V43.7032H25.8734V41.7533H44.4305Z" fill="#56548C"/>
<path d="M44.4305 43.7037V44.1408V45.0821V45.6872H25.8734V43.7037H44.4305Z" fill="#46467C"/>
<path d="M20.3529 43.7036L22.0489 43.0985V44.3424L20.3529 43.7036Z" fill="#3B4D57"/>
<path d="M25.8734 41.7533V43.7032V45.6866L22.049 44.3419V43.098L25.8734 41.7533Z" fill="#FFC8AF"/>
<path d="M10.6088 43.8717C27.0707 49.4187 44.8961 49.4187 61.358 43.8717C62.4887 47.3344 63.6527 50.8307 64.7834 54.2934C46.0933 60.6136 25.8734 60.6136 7.15012 54.2934C8.31409 50.7971 9.47806 47.3344 10.6088 43.8717Z" fill="#FBD15B"/>
<path d="M0 47.5697C2.72702 48.8136 5.4873 49.923 8.31409 50.8643C9.07898 48.5447 9.84388 46.1914 10.642 43.8717C12.4046 44.4769 14.1672 44.9811 15.9298 45.4518C16.2291 44.2752 16.5284 43.1321 16.8277 41.9555C12.6374 40.8461 8.51363 39.4005 4.48961 37.5515C4.68914 39.6358 4.92194 41.7538 5.2545 43.8717C3.55843 45.1492 1.79584 46.3931 0 47.5697Z" fill="#F4C653"/>
<path d="M10.6088 43.8718C12.7372 43.3339 14.7991 42.6951 16.7944 41.9891C16.4951 43.1658 16.1958 44.3088 15.8965 45.4854C14.1339 44.9812 12.3714 44.4433 10.6088 43.8718Z" fill="#E2B042"/>
<path d="M72 47.5697C69.273 48.8136 66.5127 49.923 63.6859 50.8643C62.921 48.5447 62.1561 46.1914 61.358 43.8717C59.5954 44.4769 57.8328 44.9811 56.0702 45.4518C55.7709 44.2752 55.4716 43.1321 55.1723 41.9555C59.3626 40.8461 63.4864 39.4005 67.5104 37.5515C67.3108 39.6358 67.078 41.7538 66.7455 43.8717C68.4416 45.1492 70.1709 46.3931 72 47.5697Z" fill="#F4C653"/>
<path d="M61.358 43.8718C59.2295 43.3339 57.1677 42.6951 55.1723 41.9891C55.4716 43.1658 55.7709 44.3088 56.0702 45.4854C57.8328 44.9812 59.6286 44.4433 61.358 43.8718Z" fill="#E2B042"/>
</g>
<path d="M82.3614 38C82.1957 38 82.0466 37.942 81.914 37.826C81.798 37.6934 81.74 37.5443 81.74 37.3786V21.2214C81.74 21.0391 81.798 20.89 81.914 20.774C82.0466 20.658 82.1957 20.6 82.3614 20.6H93.9697C94.152 20.6 94.3011 20.658 94.4171 20.774C94.5331 20.89 94.5911 21.0391 94.5911 21.2214V23.558C94.5911 23.7237 94.5331 23.8729 94.4171 24.0054C94.3011 24.1214 94.152 24.1794 93.9697 24.1794H86.0403V27.5351H93.4229C93.6051 27.5351 93.7543 27.6014 93.8703 27.734C93.9863 27.85 94.0443 27.9991 94.0443 28.1814V30.344C94.0443 30.5097 93.9863 30.6589 93.8703 30.7914C93.7543 30.9074 93.6051 30.9654 93.4229 30.9654H86.0403V34.4206H94.1686C94.3509 34.4206 94.5 34.4786 94.616 34.5946C94.732 34.7106 94.79 34.8597 94.79 35.042V37.3786C94.79 37.5443 94.732 37.6934 94.616 37.826C94.5 37.942 94.3509 38 94.1686 38H82.3614ZM97.7439 32.3326C97.5616 32.3326 97.4125 32.2746 97.2965 32.1586C97.1805 32.0426 97.1225 31.8934 97.1225 31.7111V29.3746C97.1225 29.1923 97.1805 29.0431 97.2965 28.9271C97.4125 28.8111 97.5616 28.7531 97.7439 28.7531H105.524C105.706 28.7531 105.856 28.8111 105.972 28.9271C106.104 29.0431 106.17 29.1923 106.17 29.3746V31.7111C106.17 31.8934 106.104 32.0426 105.972 32.1586C105.856 32.2746 105.706 32.3326 105.524 32.3326H97.7439ZM121.071 38.2486C119.497 38.2486 118.146 38.0166 117.019 37.5526C115.893 37.0886 115.039 36.4837 114.459 35.738C113.896 34.9757 113.597 34.1471 113.564 33.2523C113.564 33.1197 113.614 33.0037 113.713 32.9043C113.829 32.7883 113.962 32.7303 114.111 32.7303H117.243C117.442 32.7303 117.599 32.7717 117.715 32.8546C117.848 32.9209 117.981 33.0286 118.113 33.1777C118.329 33.6086 118.677 33.9649 119.157 34.2466C119.638 34.5283 120.276 34.6691 121.071 34.6691C122.016 34.6691 122.737 34.52 123.234 34.2217C123.731 33.9234 123.979 33.5174 123.979 33.0037C123.979 32.6391 123.847 32.3409 123.582 32.1089C123.333 31.8769 122.935 31.6697 122.389 31.4874C121.842 31.3051 121.03 31.098 119.953 30.866C117.964 30.4517 116.473 29.8469 115.478 29.0514C114.501 28.2394 114.012 27.0877 114.012 25.5963C114.012 24.5854 114.293 23.6823 114.857 22.8869C115.42 22.0914 116.224 21.47 117.268 21.0226C118.312 20.5751 119.53 20.3514 120.922 20.3514C122.364 20.3514 123.615 20.6 124.675 21.0971C125.736 21.5943 126.54 22.224 127.087 22.9863C127.65 23.732 127.948 24.4694 127.981 25.1986C127.981 25.3477 127.932 25.472 127.832 25.5714C127.733 25.6709 127.609 25.7206 127.459 25.7206H124.178C123.979 25.7206 123.814 25.6874 123.681 25.6211C123.565 25.5549 123.457 25.4471 123.358 25.298C123.259 24.9169 122.985 24.5937 122.538 24.3286C122.107 24.0634 121.568 23.9309 120.922 23.9309C120.176 23.9309 119.605 24.0634 119.207 24.3286C118.809 24.5937 118.61 24.9831 118.61 25.4969C118.61 25.8449 118.718 26.1349 118.933 26.3669C119.165 26.5989 119.53 26.8143 120.027 27.0131C120.541 27.1954 121.27 27.386 122.215 27.5849C123.756 27.8666 124.982 28.2229 125.893 28.6537C126.821 29.068 127.501 29.6149 127.932 30.2943C128.363 30.9571 128.578 31.794 128.578 32.8049C128.578 33.9151 128.255 34.8846 127.609 35.7131C126.979 36.5251 126.092 37.1549 124.949 37.6023C123.822 38.0331 122.529 38.2486 121.071 38.2486ZM136.733 38.2486C134.861 38.2486 133.344 37.7514 132.184 36.7571C131.024 35.7463 130.403 34.346 130.32 32.5563L130.295 31.562L130.32 30.5429C130.386 28.7531 131 27.3529 132.16 26.342C133.336 25.3311 134.861 24.8257 136.733 24.8257C138.142 24.8257 139.327 25.0826 140.288 25.5963C141.266 26.0934 141.986 26.6983 142.45 27.4109C142.931 28.1069 143.188 28.7449 143.221 29.3249C143.238 29.4906 143.18 29.6397 143.047 29.7723C142.931 29.8883 142.782 29.9463 142.6 29.9463H139.443C139.26 29.9463 139.12 29.9049 139.02 29.822C138.921 29.7391 138.83 29.6149 138.747 29.4491C138.548 28.9354 138.291 28.5709 137.976 28.3554C137.678 28.14 137.288 28.0323 136.808 28.0323C135.449 28.0323 134.745 28.9106 134.695 30.6671L134.67 31.6117L134.695 32.432C134.728 33.3269 134.919 33.9897 135.267 34.4206C135.631 34.8349 136.145 35.042 136.808 35.042C137.322 35.042 137.728 34.9343 138.026 34.7189C138.324 34.5034 138.564 34.1389 138.747 33.6251C138.83 33.4594 138.921 33.3351 139.02 33.2523C139.12 33.1694 139.26 33.128 139.443 33.128H142.6C142.765 33.128 142.906 33.186 143.022 33.302C143.155 33.4014 143.221 33.534 143.221 33.6997C143.221 34.23 142.989 34.8514 142.525 35.564C142.078 36.2766 141.365 36.9063 140.387 37.4531C139.41 37.9834 138.192 38.2486 136.733 38.2486ZM146.076 38C145.91 38 145.761 37.942 145.628 37.826C145.512 37.6934 145.454 37.5443 145.454 37.3786V20.9729C145.454 20.7906 145.512 20.6414 145.628 20.5254C145.761 20.4094 145.91 20.3514 146.076 20.3514H149.257C149.44 20.3514 149.589 20.4094 149.705 20.5254C149.821 20.6414 149.879 20.7906 149.879 20.9729V26.516C150.873 25.3891 152.182 24.8257 153.806 24.8257C154.767 24.8257 155.621 25.0411 156.367 25.472C157.129 25.9029 157.725 26.5409 158.156 27.386C158.587 28.2311 158.803 29.2503 158.803 30.4434V37.3786C158.803 37.5443 158.745 37.6934 158.629 37.826C158.513 37.942 158.363 38 158.181 38H154.975C154.809 38 154.66 37.942 154.527 37.826C154.411 37.6934 154.353 37.5443 154.353 37.3786V30.5926C154.353 29.8137 154.163 29.2171 153.781 28.8029C153.417 28.372 152.878 28.1566 152.166 28.1566C151.453 28.1566 150.89 28.372 150.475 28.8029C150.078 29.2171 149.879 29.8137 149.879 30.5926V37.3786C149.879 37.5609 149.821 37.71 149.705 37.826C149.589 37.942 149.44 38 149.257 38H146.076ZM167.736 38.2486C165.681 38.2486 164.099 37.7597 162.988 36.782C161.878 35.8043 161.273 34.4289 161.174 32.6557C161.157 32.4403 161.149 32.0674 161.149 31.5371C161.149 31.0069 161.157 30.634 161.174 30.4186C161.273 28.662 161.895 27.2949 163.038 26.3171C164.181 25.3229 165.747 24.8257 167.736 24.8257C169.741 24.8257 171.315 25.3229 172.459 26.3171C173.602 27.2949 174.224 28.662 174.323 30.4186C174.34 30.634 174.348 31.0069 174.348 31.5371C174.348 32.0674 174.34 32.4403 174.323 32.6557C174.224 34.4289 173.619 35.8043 172.509 36.782C171.398 37.7597 169.807 38.2486 167.736 38.2486ZM167.736 35.216C168.465 35.216 169.004 35.0006 169.352 34.5697C169.7 34.1223 169.899 33.4429 169.948 32.5314C169.965 32.3657 169.973 32.0343 169.973 31.5371C169.973 31.04 169.965 30.7086 169.948 30.5429C169.899 29.648 169.691 28.9769 169.327 28.5294C168.979 28.082 168.449 27.8583 167.736 27.8583C166.361 27.8583 165.631 28.7531 165.549 30.5429L165.524 31.5371L165.549 32.5314C165.582 33.4429 165.772 34.1223 166.12 34.5697C166.485 35.0006 167.023 35.216 167.736 35.216ZM182.932 38.2486C180.877 38.2486 179.294 37.7597 178.184 36.782C177.074 35.8043 176.469 34.4289 176.37 32.6557C176.353 32.4403 176.345 32.0674 176.345 31.5371C176.345 31.0069 176.353 30.634 176.37 30.4186C176.469 28.662 177.09 27.2949 178.234 26.3171C179.377 25.3229 180.943 24.8257 182.932 24.8257C184.937 24.8257 186.511 25.3229 187.655 26.3171C188.798 27.2949 189.42 28.662 189.519 30.4186C189.536 30.634 189.544 31.0069 189.544 31.5371C189.544 32.0674 189.536 32.4403 189.519 32.6557C189.42 34.4289 188.815 35.8043 187.704 36.782C186.594 37.7597 185.003 38.2486 182.932 38.2486ZM182.932 35.216C183.661 35.216 184.2 35.0006 184.548 34.5697C184.896 34.1223 185.094 33.4429 185.144 32.5314C185.161 32.3657 185.169 32.0343 185.169 31.5371C185.169 31.04 185.161 30.7086 185.144 30.5429C185.094 29.648 184.887 28.9769 184.523 28.5294C184.175 28.082 183.644 27.8583 182.932 27.8583C181.556 27.8583 180.827 28.7531 180.744 30.5429L180.72 31.5371L180.744 32.5314C180.778 33.4429 180.968 34.1223 181.316 34.5697C181.681 35.0006 182.219 35.216 182.932 35.216ZM192.634 38C192.469 38 192.319 37.942 192.187 37.826C192.071 37.6934 192.013 37.5443 192.013 37.3786V20.9729C192.013 20.7906 192.071 20.6414 192.187 20.5254C192.319 20.4094 192.469 20.3514 192.634 20.3514H195.567C195.75 20.3514 195.899 20.4094 196.015 20.5254C196.131 20.6414 196.189 20.7906 196.189 20.9729V37.3786C196.189 37.5609 196.131 37.71 196.015 37.826C195.899 37.942 195.75 38 195.567 38H192.634Z" fill="#56548C"/>
<defs>
<clipPath id="clip0">
<rect width="72" height="59" fill="white"/>
</clipPath>
</defs>
</svg>
